<?xml version="1.0" standalone="no"?>
<!DOCTYPE svg PUBLIC "-//W3C//DTD SVG 20010904//EN"
 "http://www.w3.org/TR/2001/REC-SVG-20010904/DTD/svg10.dtd">
<svg version="1.0" xmlns="http://www.w3.org/2000/svg"
 width="24px" height="20px" viewBox="0 0 512.000000 512.000000"
 preserveAspectRatio="xMidYMid meet">
  <g transform="translate(0.000000,512.000000) scale(0.100000,-0.100000)"
  fill="#FFFFFF" stroke="none">
    <path d="M361 4809 c-121 -24 -251 -121 -305 -227 -56 -111 -56 -105 -56 -889
    0 -497 4 -739 11 -775 36 -168 179 -311 347 -347 75 -16 4328 -16 4404 0 168
    35 311 178 347 347 7 36 11 278 11 775 0 784 0 778 -56 889 -56 110 -184 203
    -313 228 -67 12 -4325 12 -4390 -1z m4385 -315 c15 -11 37 -33 48 -48 21 -27
    21 -36 21 -756 0 -720 0 -729 -21 -756 -11 -15 -33 -37 -48 -48 l-27 -21
    -2159 0 -2159 0 -27 21 c-15 11 -37 33 -48 48 -21 27 -21 38 -24 729 -2 386 0
    716 3 734 7 40 49 91 90 109 25 11 407 13 2177 11 l2147 -2 27 -21z"/>
    <path d="M669 3436 c-46 -32 -73 -94 -64 -148 9 -51 56 -105 103 -118 51 -14
    3653 -14 3704 0 47 13 94 67 103 119 9 54 -21 121 -67 149 l-35 22 -1854 0
    -1854 0 -36 -24z"/>
    <path d="M2195 2242 c-23 -11 -50 -32 -60 -48 -19 -28 -20 -54 -25 -599 l-5
    -570 -26 -67 c-71 -184 -210 -304 -394 -343 -88 -18 -122 -18 -210 0 -245 52
    -417 261 -417 509 0 103 11 154 54 242 80 165 242 271 440 289 87 8 128 28
    158 77 43 72 11 171 -67 209 -38 19 -54 20 -121 14 -217 -20 -391 -103 -538
    -257 -109 -113 -182 -250 -215 -403 -20 -93 -15 -274 10 -370 118 -442 556
    -705 1001 -600 86 21 230 91 308 150 146 110 265 303 303 488 18 91 19 132 17
    646 -3 537 -3 550 -24 577 -50 68 -119 88 -189 56z"/>
    <path d="M2805 2246 c-41 -18 -83 -69 -90 -109 -3 -18 -5 -246 -3 -507 l3
    -475 27 -80 c40 -117 92 -197 184 -284 135 -128 275 -184 459 -185 124 -1 184
    13 304 71 79 38 108 59 176 127 133 132 198 289 198 476 0 187 -65 344 -197
    475 -123 122 -258 185 -431 201 -61 5 -75 3 -114 -18 -100 -54 -109 -193 -16
    -254 14 -9 64 -22 111 -29 48 -7 107 -24 137 -39 68 -33 141 -106 175 -176 24
    -49 27 -66 27 -160 0 -94 -3 -111 -27 -160 -74 -150 -242 -238 -400 -210 -79
    15 -168 61 -214 113 -20 22 -50 69 -68 106 l-31 66 -5 485 c-5 482 -5 485 -27
    516 -23 33 -86 64 -126 64 -12 -1 -36 -7 -52 -14z"/>
  </g>
</svg>
