<?xml version="1.0" standalone="no"?>
<!DOCTYPE svg PUBLIC "-//W3C//DTD SVG 20010904//EN"
 "http://www.w3.org/TR/2001/REC-SVG-20010904/DTD/svg10.dtd">
<svg version="1.0" xmlns="http://www.w3.org/2000/svg"
 width="24px" height="20px" viewBox="0 0 512.000000 512.000000"
 preserveAspectRatio="xMidYMid meet">
  <g transform="translate(0.000000,512.000000) scale(0.100000,-0.100000)"
  fill="#FFFFFF" stroke="none">
    <path d="M629 5101 c-167 -45 -291 -165 -354 -341 -19 -53 -19 -94 -22 -1277
    l-4 -1223 -93 0 c-85 0 -95 -2 -119 -24 -14 -13 -29 -35 -32 -48 -3 -13 -5
    -124 -3 -246 l3 -222 27 -27 c25 -25 35 -27 121 -31 l94 -4 6 -212 c4 -165 10
    -223 24 -266 57 -174 185 -297 356 -341 53 -14 107 -19 213 -19 l143 0 3 -380
    3 -380 28 -27 27 -28 1505 -3 1504 -2 33 29 33 29 3 381 3 381 143 0 c106 0
    160 5 213 19 171 44 299 167 356 341 14 43 20 101 24 266 l6 212 94 4 c86 4
    96 6 121 31 l27 27 3 222 c2 122 0 233 -3 246 -3 13 -18 35 -32 48 -24 22 -34
    24 -119 24 l-93 0 -4 1223 c-3 1183 -3 1224 -22 1277 -64 179 -188 297 -358
    341 -68 18 -152 19 -1931 18 -1753 0 -1865 -1 -1927 -18z m3856 -209 c70 -32
    131 -95 155 -160 20 -52 20 -79 20 -1258 l0 -1205 -52 6 c-127 14 -223 27
    -225 29 -2 2 6 29 17 62 75 217 98 448 81 799 -31 611 -135 1028 -318 1275
    -105 143 -261 246 -410 272 -209 35 -430 -65 -573 -261 -24 -33 -47 -61 -50
    -61 -3 0 -20 23 -39 50 -44 66 -145 160 -214 199 -231 132 -501 98 -701 -90
    -35 -32 -74 -74 -87 -94 -13 -19 -26 -35 -29 -35 -3 0 -29 31 -58 70 -206 269
    -558 305 -842 85 -270 -210 -434 -660 -479 -1313 -28 -396 -9 -622 73 -887 14
    -43 24 -80 23 -81 -5 -5 -215 -24 -262 -24 l-55 0 0 1205 c0 1178 0 1205 20
    1257 20 54 80 123 130 149 75 38 40 38 1965 36 l1860 -2 50 -23z m-2786 -407
    c45 -21 78 -46 121 -92 166 -182 253 -531 281 -1130 24 -509 0 -658 -136 -848
    -88 -123 -208 -216 -400 -309 -306 -149 -676 -226 -1167 -243 l-198 -6 0 100
    0 100 188 6 c746 25 1288 221 1450 525 63 118 67 142 64 402 -5 610 -71 1033
    -191 1222 -145 228 -393 74 -520 -324 -77 -244 -114 -527 -115 -893 -1 -286 6
    -346 65 -519 17 -48 27 -92 22 -96 -6 -7 -159 -50 -176 -50 -6 0 -53 134 -72
    210 -57 222 -61 587 -9 970 66 492 219 821 444 953 109 63 238 71 349 22z
    m1037 1 c177 -81 308 -291 399 -643 89 -342 135 -982 86 -1203 -95 -424 -432
    -870 -801 -1059 -177 -90 -285 -116 -453 -109 -128 6 -224 33 -345 99 -84 45
    -200 129 -255 187 l-38 39 103 36 103 35 65 -48 c310 -228 618 -198 953 94
    211 185 399 481 463 733 21 84 24 118 24 277 0 351 -54 748 -136 1001 -78 239
    -204 395 -319 395 -112 0 -232 -140 -315 -369 -26 -71 -29 -74 -35 -46 -9 39
    -63 254 -70 280 -4 13 8 40 34 80 84 128 166 198 275 237 72 26 185 19 262
    -16z m1079 -5 c273 -127 428 -569 466 -1326 16 -324 -1 -507 -66 -710 -37
    -115 -28 -110 -126 -85 -46 12 -88 25 -92 29 -5 5 5 49 22 99 56 167 65 242
    64 497 -3 483 -67 874 -183 1110 -56 117 -103 175 -163 204 -54 26 -87 26
    -135 2 -88 -45 -168 -171 -228 -356 l-32 -100 -11 45 c-6 25 -29 97 -50 161
    l-39 117 33 61 c135 253 337 347 540 252z m-2234 -460 c75 -199 116 -548 122
    -1026 l2 -220 -33 -67 c-40 -82 -128 -166 -232 -222 -39 -21 -73 -36 -76 -33
    -13 12 -65 186 -80 264 -28 147 -8 615 36 858 41 219 114 419 186 505 26 30
    29 31 41 14 7 -10 22 -43 34 -73z m1067 1 c113 -214 192 -662 192 -1093 0
    -133 -4 -181 -20 -245 -27 -106 -124 -298 -207 -408 l-67 -89 -25 31 c-67 80
    -145 240 -183 378 -20 71 -22 103 -22 314 -1 500 98 978 241 1168 23 31 26 32
    43 17 10 -9 31 -42 48 -73z m1073 -11 c89 -187 139 -457 160 -865 12 -224 7
    -345 -18 -466 -13 -68 -57 -207 -67 -218 -3 -2 -41 16 -86 39 -109 58 -191
    133 -229 211 l-31 61 0 183 c0 472 74 905 188 1102 30 52 39 47 83 -47z m-286
    -1561 c148 -155 545 -297 990 -355 116 -15 366 -34 453 -35 l42 0 0 -101 0
    -101 -142 7 c-325 15 -663 67 -898 139 -213 64 -422 164 -524 249 l-39 33 34
    97 c19 53 39 97 45 97 5 0 23 -13 39 -30z m-1097 -319 c34 -47 59 -88 56 -92
    -2 -5 -39 -31 -80 -59 l-77 -51 -45 63 c-46 63 -132 203 -132 215 0 3 15 24
    33 47 18 23 48 63 67 90 l33 48 42 -88 c24 -49 70 -127 103 -173z m978 -93
    l95 -63 -23 -19 c-13 -10 -52 -33 -88 -50 -54 -26 -80 -31 -153 -34 l-88 -4
    57 78 c31 44 66 96 78 116 11 21 22 38 24 38 2 0 46 -28 98 -62z m-1382 -21
    c17 -28 45 -73 64 -99 l34 -48 -44 0 c-53 0 -139 28 -203 65 l-46 27 78 53
    c43 29 80 53 83 54 3 0 18 -23 34 -52z m1793 -174 l107 -37 -65 -58 c-137
    -125 -305 -220 -453 -258 -96 -24 -258 -27 -361 -5 -89 19 -206 57 -203 66 2
    4 38 39 81 79 l77 72 65 -16 c38 -9 105 -16 162 -16 82 0 112 5 180 29 83 29
    199 95 263 150 19 17 36 30 38 31 1 0 50 -17 109 -37z m500 -123 c89 -16 383
    -50 424 -50 5 0 9 -92 9 -205 0 -181 -2 -210 -20 -259 -25 -66 -95 -135 -165
    -162 -49 -18 -101 -19 -1915 -19 -1814 0 -1866 1 -1915 19 -70 27 -140 96
    -165 162 -18 49 -20 78 -20 259 l0 205 73 0 c92 0 303 24 453 51 l116 20 92
    -92 c176 -178 368 -295 574 -351 110 -29 314 -36 419 -14 95 21 222 65 303
    106 l60 30 48 -24 c227 -115 538 -157 755 -102 222 57 437 187 627 381 68 69
    78 76 105 70 17 -3 81 -15 142 -25z m-2837 -1210 l0 -310 -100 0 -100 0 0 310
    0 310 100 0 100 0 0 -310z m2140 205 l0 -104 -305 -3 -305 -3 -27 -27 c-38
    -39 -38 -97 0 -136 l27 -27 305 -3 305 -3 0 -104 0 -105 -970 0 -970 0 0 105
    0 104 305 3 305 3 27 28 c21 20 28 37 28 67 0 30 -7 47 -28 67 l-27 28 -305 3
    -305 3 0 104 0 105 970 0 970 0 0 -105z m400 -205 l0 -310 -100 0 -100 0 0
    310 0 310 100 0 100 0 0 -310z"/>
    <path d="M2525 601 c-64 -27 -81 -110 -32 -158 60 -61 162 -19 162 67 0 66
    -72 116 -130 91z"/>
  </g>
</svg>
