<?xml version="1.0" standalone="no"?>
<!DOCTYPE svg PUBLIC "-//W3C//DTD SVG 20010904//EN"
 "http://www.w3.org/TR/2001/REC-SVG-20010904/DTD/svg10.dtd">
<svg version="1.0" xmlns="http://www.w3.org/2000/svg"
 width="24px" height="24px" viewBox="0 0 512.000000 512.000000"
 preserveAspectRatio="xMidYMid meet">
  <g transform="translate(0.000000,512.000000) scale(0.100000,-0.100000)"
  fill="#FFFFFF" stroke="none">
    <path d="M2430 4431 c-69 -21 -121 -65 -156 -131 -18 -33 -19 -70 -22 -536
    l-3 -502 -50 -6 c-99 -13 -242 -56 -335 -100 -295 -140 -467 -363 -550 -711
    -14 -59 -18 -148 -21 -567 l-4 -497 -69 -15 c-41 -10 -115 -16 -183 -16 -110
    0 -144 6 -305 52 -64 18 -105 -15 -86 -69 23 -66 286 -120 491 -101 75 6 133
    20 243 57 181 62 227 71 346 71 114 0 219 -20 334 -65 248 -95 449 -96 720 -5
    159 54 238 70 346 70 85 0 215 -23 291 -52 43 -16 60 -18 79 -9 27 12 42 56
    27 80 -41 68 -357 121 -543 92 -41 -7 -140 -34 -220 -61 -182 -61 -288 -76
    -426 -60 -54 7 -108 16 -121 21 l-24 9 3 567 3 568 23 58 c13 32 34 69 46 83
    l21 25 43 -40 c76 -73 230 -93 328 -43 48 24 111 91 120 127 l6 25 835 2 c813
    3 835 4 849 22 12 17 14 133 14 733 0 700 0 713 -20 733 -20 20 -33 20 -848
    20 l-828 0 -13 36 c-18 49 -82 109 -138 128 -48 17 -159 20 -203 7z m174 -126
    c69 -33 66 8 66 -803 l0 -729 -22 -28 c-63 -80 -217 -71 -260 15 -17 32 -18
    89 -18 748 0 787 -3 752 63 792 39 24 125 27 171 5z m1756 -800 l0 -635 -782
    2 -783 3 -3 633 -2 632 785 0 785 0 0 -635z m-2110 -523 l0 -159 -46 -49 c-55
    -59 -109 -168 -123 -248 -7 -38 -11 -253 -11 -582 l0 -523 -41 14 c-93 33
    -211 47 -344 42 -115 -5 -163 -13 -253 -41 l-23 -8 4 469 c4 512 5 520 72 699
    101 268 342 459 665 529 110 23 100 37 100 -143z"/>
    <path d="M1575 929 c-60 -10 -150 -37 -265 -78 -170 -60 -358 -62 -529 -5 -81
    27 -114 26 -132 -7 -16 -31 -3 -67 32 -85 51 -26 208 -62 304 -69 124 -9 265
    13 401 65 246 92 419 93 672 4 260 -93 460 -98 687 -17 274 97 422 105 647 37
    83 -26 88 -26 113 -10 30 20 34 65 8 88 -27 24 -170 65 -269 79 -160 21 -325
    -1 -496 -67 -97 -38 -230 -64 -322 -64 -97 0 -181 17 -323 66 -73 25 -168 52
    -210 59 -86 16 -240 17 -318 4z"/>
  </g>
</svg>
